<svg height="464pt" viewBox="0 0 464 464" width="464pt" xmlns="http://www.w3.org/2000/svg"><path d="m176 408v32s0 24 56 24 56-24 56-24v-32c-19.558594-1.742188-41.992188-4.121094-56-12.496094-21.503906 11.496094-36.441406 10.753906-56 12.496094zm0 0" fill="#f98c96"/><path d="m232 440c-4.417969 0-8-3.582031-8-8v-32c0-4.417969 3.582031-8 8-8s8 3.582031 8 8v32c0 4.417969-3.582031 8-8 8zm0 0" fill="#fff"/><path d="m200 80-120 112-80-104 136-88zm0 0" fill="#b5554e"/><path d="m264 80 120 112 80-104-136-88zm0 0" fill="#b5554e"/><path d="m408 239.894531c0-117.078125-78.800781-212-176-212s-176 94.921875-176 212c0 39.136719 8.648438 62.921875 24 80.105469-5.148438 6.949219-7.949219 15.355469-8 24 0 35.34375 42.984375 64 96 64 24.625 0 47.007812-2.335938 64-12.496094 16.992188 10.160156 39.375 12.496094 64 12.496094 53.015625 0 96-28.65625 96-64-.1875-8.683594-3.121094-17.085938-8.375-24 15.351562-17.183594 24.375-40.96875 24.375-80.105469zm0 0" fill="#ffd782"/><g fill="#d3843d"><path d="m152 328c-1.046875-.011719-2.078125-.230469-3.039062-.640625-.96875-.40625-1.863282-.972656-2.640626-1.679687-2.289062-2.289063-2.957031-5.742188-1.679687-8.71875.386719-.980469.957031-1.875 1.679687-2.640626 3.207032-2.960937 8.152344-2.960937 11.359376 0 .707031.777344 1.273437 1.671876 1.679687 2.640626 1.054687 2.460937.796875 5.285156-.6875 7.511718-1.484375 2.226563-3.996094 3.554688-6.671875 3.527344zm0 0"/><path d="m136 376c-1.046875-.011719-2.078125-.230469-3.039062-.640625-.96875-.40625-1.863282-.972656-2.640626-1.679687-1.503906-1.503907-2.339843-3.550782-2.320312-5.679688.027344-2.117188.855469-4.148438 2.320312-5.679688 1.890626-1.875 4.589844-2.683593 7.199219-2.160156.53125.074219 1.050781.238282 1.527344.480469.492187.160156.953125.402344 1.359375.71875.460938.277344.886719.597656 1.28125.960937 1.460938 1.535157 2.285156 3.5625 2.3125 5.679688.019531 2.128906-.816406 4.171875-2.320312 5.679688-.777344.703124-1.671876 1.273437-2.640626 1.679687-.960937.410156-1.992187.628906-3.039062.640625zm0 0"/><path d="m176 368c-1.046875-.011719-2.078125-.230469-3.039062-.640625-.96875-.40625-1.863282-.972656-2.640626-1.679687-1.503906-1.503907-2.339843-3.550782-2.320312-5.679688-.027344-1.050781.191406-2.089844.640625-3.039062.386719-.980469.957031-1.875 1.679687-2.640626 3.207032-2.960937 8.152344-2.960937 11.359376 0 .722656.765626 1.292968 1.660157 1.679687 2.640626 1.277344 2.976562.609375 6.429687-1.679687 8.71875-.777344.703124-1.671876 1.273437-2.640626 1.679687-.960937.410156-1.992187.628906-3.039062.640625zm0 0"/><path d="m112 352c-2.128906.019531-4.175781-.816406-5.679688-2.320312-.703124-.777344-1.273437-1.671876-1.679687-2.640626-.851563-1.9375-.851563-4.140624 0-6.078124.40625-.96875.972656-1.863282 1.679687-2.640626 3.207032-2.960937 8.152344-2.960937 11.359376 0 .707031.777344 1.273437 1.671876 1.679687 2.640626.855469 1.9375.855469 4.140624 0 6.078124-.40625.96875-.976563 1.863282-1.679687 2.640626-1.507813 1.503906-3.550782 2.339843-5.679688 2.320312zm0 0"/><path d="m320 328c-1.046875-.011719-2.078125-.230469-3.039062-.640625-.980469-.386719-1.875-.957031-2.640626-1.679687-1.503906-1.503907-2.339843-3.550782-2.320312-5.679688.027344-2.117188.855469-4.148438 2.320312-5.679688.378907-.34375.777344-.664062 1.191407-.960937.449219-.300781.9375-.542969 1.449219-.71875.453124-.230469.9375-.394531 1.4375-.480469 1.023437-.238281 2.089843-.238281 3.113281 0 .53125.074219 1.050781.238282 1.527343.480469.492188.160156.953126.402344 1.359376.71875.460937.277344.886718.597656 1.28125.960937 1.460937 1.53125 2.289062 3.5625 2.320312 5.679688.019531 2.128906-.816406 4.171875-2.320312 5.679688-.777344.703124-1.671876 1.273437-2.640626 1.679687-.960937.410156-1.992187.628906-3.039062.640625zm0 0"/><path d="m320 384c-1.046875-.011719-2.078125-.230469-3.039062-.640625-.980469-.386719-1.875-.957031-2.640626-1.679687-.703124-.777344-1.273437-1.671876-1.679687-2.640626-.851563-1.9375-.851563-4.140624 0-6.078124.40625-.96875.972656-1.863282 1.679687-2.640626l1.191407-.960937c.449219-.300781.9375-.542969 1.449219-.71875.453124-.230469.9375-.394531 1.4375-.480469 1.023437-.238281 2.089843-.238281 3.113281 0 .53125.074219 1.050781.238282 1.527343.480469.492188.160156.953126.402344 1.359376.71875.472656.320313.882812.640625 1.28125.960937.707031.777344 1.273437 1.671876 1.679687 2.640626.855469 1.9375.855469 4.140624 0 6.078124-.40625.96875-.976563 1.863282-1.679687 2.640626-1.507813 1.503906-3.550782 2.339843-5.679688 2.320312zm0 0"/><path d="m352 360c-2.128906.019531-4.175781-.816406-5.679688-2.320312-.703124-.777344-1.273437-1.671876-1.679687-2.640626-.851563-1.9375-.851563-4.140624 0-6.078124.386719-.980469.957031-1.875 1.679687-2.640626.378907-.34375.777344-.664062 1.191407-.960937.449219-.300781.9375-.542969 1.449219-.71875.453124-.230469.9375-.394531 1.4375-.480469 2.636718-.535156 5.367187.273438 7.28125 2.160156.722656.765626 1.292968 1.660157 1.679687 2.640626.855469 1.9375.855469 4.140624 0 6.078124-.40625.96875-.976563 1.863282-1.679687 2.640626-1.507813 1.503906-3.550782 2.339843-5.679688 2.320312zm0 0"/><path d="m288 352c-1.046875-.011719-2.078125-.230469-3.039062-.640625-.96875-.40625-1.863282-.972656-2.640626-1.679687-.703124-.777344-1.273437-1.671876-1.679687-2.640626-.410156-.960937-.628906-1.992187-.640625-3.039062.027344-2.117188.855469-4.148438 2.320312-5.679688.378907-.34375.777344-.664062 1.191407-.960937.449219-.300781.9375-.542969 1.449219-.71875.453124-.230469.9375-.394531 1.4375-.480469 1.558593-.332031 3.183593-.164062 4.640624.480469.96875.40625 1.863282.976563 2.640626 1.679687 1.460937 1.53125 2.289062 3.5625 2.320312 5.679688-.011719 1.046875-.230469 2.078125-.640625 3.039062-.40625.96875-.976563 1.863282-1.679687 2.640626-1.507813 1.503906-3.550782 2.339843-5.679688 2.320312zm0 0"/></g><path d="m144 232h-32c-4.417969 0-8-3.582031-8-8s3.582031-8 8-8h32c4.417969 0 8 3.582031 8 8s-3.582031 8-8 8zm0 0" fill="#dd3e46"/><path d="m360 232h-32c-4.417969 0-8-3.582031-8-8s3.582031-8 8-8h32c4.417969 0 8 3.582031 8 8s-3.582031 8-8 8zm0 0" fill="#dd3e46"/><path d="m280 272c0 26.511719-21.488281 64-48 64s-48-37.488281-48-64 21.488281-40 48-40 48 13.488281 48 40zm0 0" fill="#d3843d"/><path d="m264 200c-8.835938 0-16-7.164062-16-16s7.164062-16 16-16 16 7.164062 16 16-7.164062 16-16 16zm0-16" fill="#5a6470"/><path d="m200 200c-8.835938 0-16-7.164062-16-16s7.164062-16 16-16 16 7.164062 16 16-7.164062 16-16 16zm0-16" fill="#5a6470"/><path d="m0 88 136-88 16 104c4.246094 25.488281-16.648438 43.0625-40 32zm0 0" fill="#d3843d"/><path d="m464 88-136-88-16 104c-4.246094 25.488281 16.648438 43.0625 40 32zm0 0" fill="#d3843d"/></svg>